<?xml version="1.0" standalone="no"?>
<!DOCTYPE svg PUBLIC "-//W3C//DTD SVG 20010904//EN"
 "http://www.w3.org/TR/2001/REC-SVG-20010904/DTD/svg10.dtd">
<svg version="1.0" xmlns="http://www.w3.org/2000/svg"
 width="2000.000000pt" height="2000.000000pt" viewBox="0 0 2000.000000 2000.000000"
 preserveAspectRatio="xMidYMid meet">
<metadata>
Created by potrace 1.11, written by Peter Selinger 2001-2013
</metadata>
<g transform="translate(0.000000,2000.000000) scale(0.100000,-0.100000)"
fill="#000000" stroke="none">
<path d="M2321 11955 c-89 -223 -161 -407 -161 -410 0 -2 -11 -29 -25 -59 -14
-30 -25 -58 -25 -61 0 -4 -6 -21 -14 -38 -8 -18 -35 -86 -61 -152 -25 -66 -52
-133 -59 -150 -7 -16 -62 -155 -122 -307 l-109 -278 -740 -2 -740 -3 0 -115 0
-115 145 -2 c80 -1 151 -2 158 -2 9 -1 12 -38 12 -151 0 -149 0 -150 -22 -151
-13 0 -84 -1 -158 -2 l-135 -2 0 -467 0 -468 -116 0 -117 0 0 -455 1 -455 213
0 c138 0 214 4 214 10 0 6 -6 36 -14 68 -29 113 -33 155 -34 290 -1 472 262
894 688 1102 468 230 1022 137 1399 -232 308 -303 432 -744 327 -1161 -13 -51
-23 -93 -22 -95 3 -2 413 -6 1704 -17 l612 -5 0 2145 0 2145 -1319 0 -1319 0
-161 -405z m1449 43 c1 -29 1 -1434 0 -1468 l0 -25 -832 0 c-724 1 -833 3
-830 15 3 15 246 658 263 695 9 20 281 724 301 778 l10 27 544 0 544 0 0 -22z
m1065 -733 c0 -497 -3 -755 -10 -756 -5 -1 -162 -2 -347 -3 l-338 -1 0 757 0
758 348 0 347 0 0 -755z m5 -2648 l0 -262 -872 0 -873 0 -3 263 -2 262 875 0
875 0 0 -263z"/>
<path d="M5303 9355 l0 -1285 347 0 347 0 1 503 c0 276 1 510 1 520 1 16 17
17 194 17 l193 0 54 55 c146 148 368 256 575 281 259 31 514 -38 723 -195 44
-34 82 -61 84 -61 3 0 2 415 -1 432 0 3 -409 6 -907 6 -498 0 -908 3 -911 6
-4 3 -6 97 -6 208 l0 203 964 1 c530 1 966 2 969 3 3 0 5 134 5 296 l0 295
-1316 0 -1316 0 0 -1285z"/>
<path d="M8270 9355 l0 -1285 1248 0 1247 0 0 298 0 297 -810 2 c-446 1 -851
2 -900 2 l-90 1 0 985 0 985 -347 0 -348 0 0 -1285z"/>
<path d="M11110 10633 c-1 -12 -1 -492 -1 -543 l1 -45 1315 0 c1162 0 1315 2
1316 15 0 8 1 141 1 295 l0 280 -1316 3 c-724 1 -1316 -1 -1316 -5z"/>
<path d="M14117 10633 c-2 -5 -3 -138 -3 -298 l1 -290 1318 0 1317 0 0 297 0
298 -1314 0 c-723 0 -1316 -3 -1319 -7z"/>
<path d="M17051 10295 c0 -262 3 -345 12 -346 7 -1 244 -3 527 -4 283 -1 520
-3 525 -4 7 -1 10 -318 10 -936 l0 -935 395 0 395 0 0 938 0 937 533 0 c466 0
532 2 533 15 1 19 1 627 0 658 l-1 22 -1465 0 -1464 0 0 -345z"/>
<path d="M11109 9572 c0 -74 0 -1323 0 -1424 l1 -78 1315 0 c1045 0 1315 3
1316 13 1 15 1 546 0 569 -1 16 -60 17 -908 17 -500 0 -935 0 -969 0 l-61 1 0
220 0 220 914 0 913 0 0 259 0 260 -1260 -1 -1260 0 -1 -56z"/>
<path d="M14119 9622 c-1 -4 -2 -355 -3 -779 l-1 -773 1317 0 1318 0 0 299 0
299 -892 1 c-491 0 -928 0 -970 1 l-78 0 0 220 0 220 915 0 915 0 0 259 0 259
-1260 0 c-693 0 -1261 -3 -1261 -6z"/>
<path d="M1565 9283 c-92 -19 -183 -46 -232 -69 -300 -144 -482 -430 -484
-760 0 -52 2 -97 4 -101 3 -5 8 -29 11 -54 12 -89 65 -220 126 -310 105 -153
254 -265 440 -330 91 -32 347 -40 454 -14 234 56 449 231 552 451 91 193 105
422 38 624 -25 74 -97 210 -135 253 -142 163 -303 262 -494 303 -36 7 -251 13
-280 7z m265 -368 c200 -61 346 -271 335 -480 -4 -84 -20 -139 -63 -215 -88
-160 -250 -251 -434 -245 -264 7 -468 221 -468 489 0 209 161 409 372 462 65
16 183 11 258 -11z"/>
<path d="M1607 8774 c-146 -37 -247 -165 -249 -314 -2 -117 54 -220 151 -282
200 -126 474 2 498 235 l5 53 -156 -1 c-86 0 -156 2 -156 5 0 4 61 35 135 70
74 34 135 66 135 70 0 11 -40 61 -74 94 -69 64 -194 94 -289 70z"/>
<path d="M6980 9276 c-207 -46 -381 -155 -504 -315 -257 -333 -219 -818 86
-1107 104 -100 199 -155 338 -198 80 -25 95 -26 260 -23 168 3 178 4 259 35
337 127 551 431 552 785 2 357 -232 686 -566 793 -122 40 -319 53 -425 30z
m243 -336 c153 -28 286 -130 360 -279 39 -79 42 -90 45 -185 6 -166 -38 -283
-145 -384 -114 -106 -317 -154 -473 -112 -166 44 -312 197 -350 365 -12 52
-14 160 -5 208 34 177 193 340 371 380 79 18 124 20 197 7z"/>
<path d="M7081 8768 c-97 -17 -179 -79 -229 -173 -22 -43 -26 -63 -27 -140 0
-79 3 -96 27 -140 40 -76 114 -141 183 -162 128 -38 260 -3 342 90 42 48 74
122 76 177 l2 45 -157 0 c-87 0 -158 1 -158 3 0 1 19 11 43 21 94 41 237 113
237 120 0 5 -18 29 -41 54 -72 82 -191 124 -298 105z"/>
</g>
</svg>
